# xmcd
#
# Track frame offsets: 
#        150
#        13667
#        37939
#        63383
#        92875
#        115262
#        138789
#        158853
#        185188
#        208162
#        243234
#        283904
#        312108
#        335715
#
# Disc length: 4708 seconds
#
# Revision: 0
# Processed by: cddbd v1.5.2PL0 Copyright (c) Steve Scherf et al.
# Submitted via: ExactAudioCopy v1.0b1
#
DISCID=cd12620e
DTITLE=Various Artist - West African Music
DYEAR=2002
DGENRE=African
TTITLE0=El Hadj N'DIAYE ROSE - Sabar
TTITLE1=Ami Koïta - Sanou Djoube
TTITLE2=Abdoulaye Diabate - Djiriyo
TTITLE3=Mamadou Diabate - Tunga
TTITLE4=Mansour Seck - Almany Bocoum
TTITLE5=Nahawa Doumbia - Djina Mousso (Demon Woman)
TTITLE6=Fantani Touré - Sanka Nyonkon
TTITLE7=Mamady Keita dit Ntoman et Kendigo - Amana
TTITLE8=Babani Kone - Djeli Baba
TTITLE9=Thione Seck - Daaly
TTITLE10=Coumba Sidibe - Mougakan
TTITLE11=Naïny Diabate - Magnoumako
TTITLE12=Boubacar Traoré - Kar Kar
TTITLE13=Nfaly Kouyate - Kora
EXTD=
EXTT0=
EXTT1=
EXTT2=
EXTT3=
EXTT4=
EXTT5=
EXTT6=
EXTT7=
EXTT8=
EXTT9=
EXTT10=
EXTT11=
EXTT12=
EXTT13=
PLAYORDER=
